<svg xmlns="http://www.w3.org/2000/svg" version="1.1" xmlns:xlink="http://www.w3.org/1999/xlink" width="512" height="512" x="0" y="0" viewBox="0 0 50 51" style="enable-background:new 0 0 512 512" xml:space="preserve" class=""><g><g fill="#000" fill-rule="evenodd" clip-rule="evenodd"><path d="M17.645 22.7c.61-.611 1.6-.611 2.21 0L25 27.843l15.562-15.562a1.562 1.562 0 1 1 2.21 2.21L26.104 31.16c-.61.61-1.6.61-2.21 0l-6.25-6.25c-.61-.61-.61-1.6 0-2.21z" fill="#000000" opacity="1" data-original="#000000"></path><path d="M25 10.783c-8.342 0-15.104 6.763-15.104 15.104S16.658 40.991 25 40.991s15.104-6.762 15.104-15.104a1.562 1.562 0 1 1 3.125 0c0 10.068-8.161 18.23-18.229 18.23S6.77 35.955 6.77 25.887 14.933 7.658 25 7.658a18.2 18.2 0 0 1 6.15 1.064 1.563 1.563 0 0 1-1.053 2.942 15.075 15.075 0 0 0-5.097-.88z" fill="#000000" opacity="1" data-original="#000000"></path></g></g></svg>